<?xml version="1.0" standalone="no"?>
<!DOCTYPE svg PUBLIC "-//W3C//DTD SVG 20010904//EN"
 "http://www.w3.org/TR/2001/REC-SVG-20010904/DTD/svg10.dtd">
<svg version="1.0" xmlns="http://www.w3.org/2000/svg"
 width="512.000000pt" height="512.000000pt" viewBox="0 0 512.000000 512.000000"
 preserveAspectRatio="xMidYMid meet">

<g transform="translate(0.000000,512.000000) scale(0.100000,-0.100000)"
fill="#000000" stroke="none">
<path d="M1182 4987 l-132 -132 0 -2295 0 -2295 133 -133 132 -132 1250 0
1250 0 132 132 133 133 0 2295 0 2295 -133 133 -132 132 -1250 0 -1250 0 -133
-133z m2661 -106 l87 -88 0 -2233 0 -2233 -87 -88 -87 -89 -1190 0 -1191 0
-87 87 -88 88 0 2235 0 2235 87 87 88 88 1190 0 1191 0 87 -89z"/>
<path d="M1450 4795 l0 -75 75 0 75 0 0 75 0 75 -75 0 -75 0 0 -75z"/>
<path d="M1700 4795 l0 -75 75 0 75 0 0 75 0 75 -75 0 -75 0 0 -75z"/>
<path d="M1950 4795 l0 -75 335 0 335 0 0 75 0 75 -335 0 -335 0 0 -75z"/>
<path d="M3440 4795 l0 -75 103 0 c131 0 137 -5 137 -113 l0 -77 75 0 75 0 0
108 0 108 -63 62 -63 62 -132 0 -132 0 0 -75z"/>
<path d="M3085 4720 c-361 -49 -590 -419 -471 -761 64 -183 218 -325 406 -374
99 -26 253 -17 345 20 147 59 248 152 315 290 61 128 76 251 45 382 -36 153
-157 311 -290 380 -104 54 -237 78 -350 63z m221 -171 c159 -59 267 -201 281
-369 29 -342 -339 -573 -642 -404 -59 34 -141 124 -171 189 -157 343 181 713
532 584z"/>
<path d="M3205 4446 c-3 -22 -9 -56 -12 -73 -4 -26 -1 -34 13 -38 11 -3 33
-13 49 -22 l30 -15 47 54 c26 29 48 56 48 59 0 9 -92 56 -132 67 l-37 10 -6
-42z"/>
<path d="M3015 4456 c-27 -14 -61 -34 -75 -45 l-25 -20 52 -52 52 -52 45 24
c31 16 46 30 46 44 -1 33 -25 118 -35 122 -6 1 -32 -8 -60 -21z"/>
<path d="M3392 4274 c-57 -32 -61 -37 -51 -57 21 -39 14 -121 -14 -170 l-26
-44 53 -52 52 -52 32 45 c72 100 87 223 41 339 -6 15 -14 27 -18 27 -3 0 -34
-16 -69 -36z"/>
<path d="M2820 4123 c1 -135 130 -285 265 -308 22 -4 48 -9 58 -12 15 -4 17 4
17 71 l0 75 -42 12 c-24 6 -58 22 -77 36 -35 27 -70 92 -71 131 0 21 -4 22
-75 22 l-75 0 0 -27z"/>
<path d="M1300 2960 l0 -1540 75 0 75 0 0 1540 0 1540 -75 0 -75 0 0 -1540z"/>
<path d="M1532 3028 l3 -1393 29 -53 c32 -57 81 -102 143 -130 35 -16 102 -17
873 -17 l835 0 55 27 c65 32 77 41 114 91 50 66 56 117 56 500 0 217 -4 347
-10 347 -5 0 -81 -39 -169 -86 l-160 -86 -128 70 -128 70 -105 -55 c-58 -31
-117 -63 -131 -71 -25 -14 -30 -13 -105 29 l-79 44 158 3 158 3 -3 72 -3 72
-367 3 -368 2 0 -75 0 -75 105 0 c58 0 105 -3 105 -7 0 -5 -33 -25 -73 -46
l-74 -39 -86 47 -86 46 -3 72 -3 72 -120 0 -120 0 -3 -72 -3 -73 46 0 45 0 0
-316 c0 -348 -2 -363 -61 -398 -39 -23 -89 -23 -128 0 -65 38 -61 -42 -61
1322 l0 1240 92 -50 c87 -47 94 -49 118 -35 14 8 72 39 130 70 l105 56 127
-70 128 -69 52 26 c29 15 54 28 56 29 3 3 -55 124 -63 133 -2 2 -12 -1 -24 -7
-16 -9 -40 0 -148 58 l-128 70 -131 -70 -131 -69 -104 56 c-57 31 -132 72
-167 91 l-62 34 2 -1393z m1213 -949 l40 -21 129 70 129 71 81 -45 c45 -25
104 -56 131 -70 l50 -25 84 45 c47 25 88 46 93 46 4 0 8 -102 8 -227 0 -251
-5 -274 -63 -317 -28 -21 -39 -21 -690 -24 -363 -1 -666 -1 -673 2 -10 4 -9
15 2 52 10 35 14 108 14 281 0 128 3 233 6 233 4 0 45 -21 93 -46 l86 -46 129
70 129 70 91 -49 c50 -28 109 -59 131 -70z"/>
<path d="M2310 3916 l0 -35 -52 -3 -53 -3 -3 -182 -2 -183 105 0 105 0 0 -30
0 -30 -105 0 -105 0 0 -75 0 -75 55 0 55 0 0 -35 0 -35 75 0 75 0 0 35 0 35
55 0 55 0 0 180 0 180 -111 0 -110 0 3 33 3 32 108 3 108 3 -3 72 -3 72 -52 3
-53 3 0 35 0 34 -75 0 -75 0 0 -34z"/>
<path d="M3680 2072 c0 -1575 -1 -1640 -18 -1655 -17 -16 -84 -17 -765 -17
l-747 0 0 -75 0 -75 778 0 778 0 62 63 62 63 -2 1664 -3 1665 -72 3 -73 3 0
-1639z"/>
<path d="M3090 2930 l0 -510 75 0 75 0 0 510 0 510 -75 0 -75 0 0 -510z"/>
<path d="M1840 3015 l0 -75 125 0 125 0 0 75 0 75 -125 0 -125 0 0 -75z"/>
<path d="M2200 3015 l0 -75 370 0 370 0 0 75 0 75 -370 0 -370 0 0 -75z"/>
<path d="M1840 2705 l0 -75 125 0 125 0 0 75 0 75 -125 0 -125 0 0 -75z"/>
<path d="M2200 2705 l0 -75 370 0 370 0 0 75 0 75 -370 0 -370 0 0 -75z"/>
<path d="M1516 1368 c-48 -56 -102 -163 -116 -235 -15 -72 -8 -242 13 -308 50
-155 196 -306 352 -364 116 -43 284 -44 399 0 157 58 303 209 353 364 21 68
29 234 13 304 -14 64 -58 165 -87 200 l-20 24 -56 -43 c-32 -23 -57 -45 -57
-47 0 -3 9 -17 19 -32 41 -57 63 -149 59 -246 -3 -81 -7 -99 -40 -166 -107
-217 -357 -302 -573 -195 -240 119 -312 428 -149 642 l32 42 -53 52 -52 52
-37 -44z"/>
<path d="M1815 1311 c-33 -15 -68 -37 -77 -48 -17 -18 -16 -21 32 -68 l49 -48
51 24 c41 19 50 28 46 44 -3 11 -11 44 -17 73 -7 28 -15 52 -18 52 -3 0 -33
-13 -66 -29z"/>
<path d="M2002 1273 c-11 -75 -9 -83 17 -83 9 0 26 -7 37 -15 10 -8 24 -15 30
-15 11 0 94 97 94 111 0 12 -120 69 -145 69 -20 0 -24 -7 -33 -67z"/>
<path d="M2200 1136 c-41 -24 -54 -37 -52 -52 16 -99 14 -114 -13 -170 l-27
-56 48 -49 48 -49 22 21 c12 11 35 48 50 82 23 50 29 76 29 137 0 71 -26 172
-43 169 -4 0 -32 -15 -62 -33z"/>
<path d="M1626 958 c9 -65 59 -161 105 -203 52 -47 130 -83 189 -87 l45 -3 3
71 3 72 -38 7 c-77 14 -130 63 -153 143 l-13 42 -74 0 -73 0 6 -42z"/>
<path d="M1300 492 l0 -128 58 -57 58 -57 182 0 182 0 0 75 0 75 -153 0 c-106
0 -157 4 -165 12 -8 8 -12 47 -12 110 l0 98 -75 0 -75 0 0 -128z"/>
</g>
</svg>
