<?xml version="1.0" standalone="no"?>
<!DOCTYPE svg PUBLIC "-//W3C//DTD SVG 20010904//EN"
 "http://www.w3.org/TR/2001/REC-SVG-20010904/DTD/svg10.dtd">
<svg version="1.0" xmlns="http://www.w3.org/2000/svg"
 width="512.000000pt" height="512.000000pt" viewBox="0 0 512.000000 512.000000"
 preserveAspectRatio="xMidYMid meet">

<g transform="translate(0.000000,512.000000) scale(0.100000,-0.100000)"
fill="#000000" stroke="none">
<path d="M542 4597 l-522 -522 0 -2038 0 -2037 2535 0 c1394 0 2535 4 2535 8
0 25 -335 944 -365 1000 -101 192 -276 327 -495 380 -47 12 -158 35 -247 53
l-163 32 0 62 0 62 56 37 c76 51 174 151 223 229 39 61 49 69 188 152 173 104
213 138 250 213 l28 57 -1 345 c-1 388 -4 411 -78 544 -66 118 -202 233 -317
267 -33 10 -51 26 -94 83 -124 166 -257 248 -437 270 l-58 7 0 660 0 659
-1258 0 -1257 0 -523 -523z m2868 -222 l0 -575 -85 0 -85 0 0 495 0 495 -575
0 -575 0 0 -165 0 -165 -455 0 -455 0 0 245 0 245 1115 0 1115 0 0 -575z
m-2400 105 l0 -350 -352 0 -353 0 350 350 c192 193 351 350 352 350 2 0 3
-157 3 -350z m2070 60 l0 -80 -415 0 -415 0 0 80 0 80 415 0 415 0 0 -80z
m-990 -745 l0 -495 -85 0 -85 0 0 -80 0 -80 85 0 85 0 0 -85 0 -85 -785 0
-785 0 0 85 0 85 620 0 620 0 0 80 0 80 -620 0 -620 0 0 330 0 330 330 0 330
0 0 165 0 165 455 0 455 0 0 -495z m988 235 l-3 -261 -90 -30 c-117 -39 -200
-84 -308 -165 -82 -62 -197 -182 -235 -247 -16 -27 -18 -28 -102 -25 l-85 3
-3 493 -2 492 415 0 415 0 -2 -260z m-2728 -645 l0 -575 953 0 952 0 0 -262 0
-263 28 -57 c37 -75 77 -109 251 -213 137 -82 149 -92 182 -147 45 -73 152
-183 227 -233 l57 -38 0 -62 0 -61 -262 -48 c-245 -45 -361 -76 -415 -112 -26
-16 -26 -15 -12 46 21 92 28 196 18 297 -39 417 -329 761 -734 870 -135 36
-344 39 -475 6 -299 -75 -538 -269 -666 -538 -187 -394 -96 -863 225 -1156
300 -274 744 -337 1106 -156 33 16 73 38 88 49 16 11 30 19 31 17 2 -2 -43
-132 -99 -289 l-102 -285 -756 -3 -757 -2 0 1895 0 1895 80 0 80 0 0 -575z
m3401 209 c86 -41 136 -87 211 -195 55 -80 64 -88 105 -99 152 -38 279 -163
319 -314 9 -33 14 -108 14 -212 l0 -162 -37 14 c-21 7 -56 13 -79 14 l-41 0
-7 71 c-15 169 -105 259 -258 259 l-68 0 0 -79 0 -79 57 -4 c46 -4 61 -10 80
-32 23 -27 23 -30 23 -279 0 -291 -9 -351 -69 -472 -70 -141 -167 -238 -306
-305 -137 -66 -269 -84 -413 -54 -204 41 -383 182 -470 371 -53 116 -62 178
-62 460 l0 252 24 28 24 28 471 3 471 3 0 79 0 80 -483 0 -483 0 -52 -26 c-86
-43 -127 -112 -138 -233 l-7 -71 -41 0 c-23 -1 -58 -7 -78 -14 l-38 -14 0 102
c1 443 293 804 731 901 47 10 126 14 299 12 l235 -2 66 -31z m-1421 -461 c0
-5 -11 -42 -23 -83 -33 -104 -51 -101 -55 8 l-3 82 41 0 c22 0 40 -3 40 -7z
m251 -735 c0 -46 4 -114 8 -153 5 -38 7 -71 7 -72 -7 -9 -142 86 -157 111 -51
83 14 195 114 196 l27 0 1 -82z m1745 66 c67 -32 93 -117 55 -180 -15 -25
-150 -121 -157 -111 0 1 3 36 7 77 4 41 8 110 8 153 1 76 1 77 27 77 14 0 41
-7 60 -16z m-2786 -94 c229 -55 433 -218 540 -431 55 -108 80 -205 87 -329 21
-391 -238 -741 -622 -841 -111 -29 -289 -29 -400 0 -288 75 -514 298 -597 588
-29 102 -32 313 -5 413 26 94 109 256 167 323 170 198 375 295 630 296 83 1
139 -5 200 -19z m1710 -865 c36 -8 108 -14 160 -14 52 0 124 6 160 14 91 20
90 20 90 -22 -1 -37 -5 -41 -125 -131 l-125 -92 -125 92 c-120 90 -124 94
-125 131 0 42 -1 42 90 22z m-37 -304 c53 -41 97 -76 97 -80 0 -3 -70 -41
-155 -84 l-155 -77 0 174 0 175 28 3 c29 4 33 2 185 -111z m605 -69 l2 -172
-155 77 c-85 43 -155 81 -155 84 0 4 55 48 122 98 100 75 128 91 153 89 l30
-3 3 -173z m-988 -147 c0 -187 4 -285 10 -285 6 0 56 23 111 51 56 27 102 49
104 47 1 -2 25 -37 53 -79 l51 -76 -29 -204 c-16 -112 -32 -219 -35 -236 l-6
-33 -244 0 c-227 0 -245 1 -245 18 0 9 14 130 31 269 17 139 29 259 26 266 -3
9 -30 17 -77 21 -40 4 -74 6 -76 4 -3 -3 -74 -552 -74 -572 0 -3 -124 -6 -275
-6 -151 0 -275 2 -275 4 0 15 248 694 272 746 22 45 54 88 107 141 101 101
179 139 356 173 72 14 139 27 150 29 11 3 30 5 43 6 l22 1 0 -285z m1280 260
c122 -23 201 -51 267 -94 73 -47 170 -151 203 -216 13 -28 81 -210 151 -405
l127 -355 -230 -3 c-127 -1 -232 -1 -234 1 -3 2 -74 553 -74 572 0 7 -118 -1
-151 -11 -14 -4 -12 -33 17 -262 18 -141 33 -267 34 -279 l0 -23 -245 0 -244
0 -6 33 c-3 17 -19 124 -35 236 l-29 204 51 76 c28 42 52 77 53 79 2 2 48 -20
104 -47 55 -28 105 -51 111 -51 6 0 10 98 10 286 0 267 1 285 18 280 9 -2 55
-12 102 -21z m-593 -318 l103 -52 -65 -98 -66 -98 36 -246 c19 -135 35 -250
35 -254 0 -5 -67 -9 -150 -9 -82 0 -150 4 -150 9 0 4 16 119 35 254 l36 246
-66 98 -65 98 103 52 c56 29 104 52 107 52 3 0 51 -23 107 -52z"/>
<path d="M1260 2146 l0 -83 -82 -5 c-67 -3 -91 -9 -123 -30 -81 -52 -113 -108
-122 -217 -11 -135 34 -238 127 -291 43 -24 54 -25 262 -30 212 -5 217 -5 242
-29 23 -22 26 -32 26 -98 0 -65 -3 -77 -25 -98 -24 -25 -25 -25 -220 -25 -195
0 -196 0 -220 25 -14 13 -25 31 -25 40 0 12 -15 15 -85 15 l-85 0 6 -27 c15
-68 29 -98 63 -136 46 -51 100 -75 189 -83 l72 -7 0 -78 0 -79 85 0 85 0 0 79
0 78 70 6 c38 3 89 14 112 25 90 40 148 141 148 258 0 132 -44 217 -139 266
-53 28 -54 28 -253 28 -257 0 -267 5 -267 125 0 118 13 125 244 125 193 0 229
-8 241 -55 6 -24 9 -25 91 -25 l85 0 -7 33 c-15 66 -38 108 -82 147 -53 46
-94 60 -180 60 l-63 0 0 85 0 85 -85 0 -85 0 0 -84z"/>
</g>
</svg>
