<?xml version="1.0" standalone="no"?>
<!DOCTYPE svg PUBLIC "-//W3C//DTD SVG 20010904//EN"
 "http://www.w3.org/TR/2001/REC-SVG-20010904/DTD/svg10.dtd">
<svg version="1.0" xmlns="http://www.w3.org/2000/svg"
 width="64.000000pt" height="64.000000pt" viewBox="0 0 64.000000 64.000000"
 preserveAspectRatio="xMidYMid meet">

<g transform="translate(0.000000,64.000000) scale(0.100000,-0.100000)"
fill="#000000" stroke="none">
<path d="M188 581 c-6 -10 -18 -17 -25 -14 -7 3 -13 0 -13 -6 0 -6 4 -11 9
-11 5 0 8 -25 6 -55 -2 -39 2 -60 12 -70 18 -19 22 -19 44 1 24 22 37 11 65
-51 12 -29 28 -56 34 -60 11 -7 4 -25 -10 -25 -6 0 -21 23 -35 50 -27 54 -45
58 -45 10 0 -38 -10 -43 -63 -29 l-44 11 5 49 c2 27 2 49 -1 49 -20 0 -56 -26
-61 -44 -4 -15 -8 -18 -17 -9 -21 21 -4 48 49 75 58 29 55 48 -5 23 -64 -27
-76 -43 -68 -95 9 -56 22 -73 52 -65 26 6 29 -3 11 -51 -10 -27 -9 -39 6 -73
l18 -39 -32 -45 c-45 -63 -39 -81 28 -85 46 -3 52 -1 52 17 0 11 -5 23 -10 26
-6 4 0 18 15 37 14 16 25 39 25 50 0 17 2 18 15 8 12 -10 15 -29 13 -74 l-3
-61 50 0 c44 0 50 2 47 20 -2 11 -8 22 -13 23 -5 2 -7 25 -3 53 4 33 3 54 -6
64 -19 23 -31 18 -19 -9 16 -34 3 -96 -19 -96 -15 0 -17 7 -14 36 4 36 -19 73
-62 96 -17 9 -18 7 -12 -34 6 -40 4 -46 -23 -72 -37 -36 -61 -31 -32 6 25 31
26 40 5 80 -13 26 -14 37 -4 75 10 32 17 42 29 39 9 -2 31 -7 49 -11 24 -5 32
-12 32 -29 0 -22 17 -46 32 -46 4 0 2 11 -4 25 -16 36 -6 40 51 21 27 -9 59
-16 70 -16 16 0 21 -6 21 -25 0 -20 5 -25 24 -25 24 0 56 -23 56 -41 0 -5 11
-11 25 -15 14 -3 25 -9 25 -13 0 -13 -56 -61 -72 -61 -21 0 -78 -30 -78 -41 0
-12 3 -11 37 3 15 7 33 13 38 14 35 7 54 18 58 36 8 28 51 21 55 -9 2 -13 10
-23 18 -23 8 0 17 -7 20 -15 6 -16 24 -21 24 -7 0 5 -18 28 -40 53 -41 46 -50
69 -26 69 8 0 22 7 30 16 26 25 20 44 -13 44 -17 0 -32 -4 -36 -10 -13 -21
-31 1 -27 34 3 27 -1 37 -18 46 -11 6 -29 9 -38 7 -13 -3 -11 -7 11 -15 16 -7
27 -19 27 -31 0 -26 -14 -34 -50 -26 -35 8 -40 25 -7 25 20 1 21 2 5 14 -10 7
-18 21 -18 30 0 22 -20 21 -21 -1 0 -15 -2 -14 -11 3 -5 12 -21 27 -35 33 -14
7 -34 32 -49 65 -13 30 -31 60 -40 66 -8 8 -12 21 -9 31 4 11 2 19 -4 19 -6 0
-11 -4 -11 -9 0 -16 -33 -22 -46 -9 -8 7 -11 23 -8 34 6 21 8 21 57 8 52 -14
75 -10 44 7 -9 6 -17 18 -17 27 0 41 -60 58 -82 23z m59 -16 c8 -21 2 -24 -25
-14 -13 5 -20 13 -17 19 9 15 35 12 42 -5z m-43 -126 c-3 -5 -10 -7 -15 -3 -5
3 -7 10 -3 15 3 5 10 7 15 3 5 -3 7 -10 3 -15z m-94 -63 c0 -14 -4 -28 -10
-31 -6 -4 -10 7 -10 24 0 17 5 31 10 31 6 0 10 -11 10 -24z m-40 -36 c0 -5 -4
-10 -10 -10 -5 0 -10 5 -10 10 0 6 5 10 10 10 6 0 10 -4 10 -10z m189 -39
c-15 -5 -22 6 -14 19 6 9 10 9 16 -1 5 -8 4 -15 -2 -18z m111 -22 c0 -5 -7 -9
-15 -9 -15 0 -20 12 -9 23 8 8 24 -1 24 -14z m205 -99 c-3 -5 -13 -10 -21 -10
-8 0 -12 5 -9 10 3 6 13 10 21 10 8 0 12 -4 9 -10z m-60 -10 c3 -5 -1 -10 -9
-10 -8 0 -18 5 -21 10 -3 6 1 10 9 10 8 0 18 -4 21 -10z m-380 -120 c4 -6 -8
-10 -29 -10 -20 0 -36 5 -36 10 0 6 13 10 29 10 17 0 33 -4 36 -10z m155 0 c0
-5 -13 -10 -30 -10 -16 0 -30 5 -30 10 0 6 14 10 30 10 17 0 30 -4 30 -10z"/>
</g>
</svg>
