<?xml version="1.0" standalone="no"?>
<!DOCTYPE svg PUBLIC "-//W3C//DTD SVG 20010904//EN"
 "http://www.w3.org/TR/2001/REC-SVG-20010904/DTD/svg10.dtd">
<svg version="1.0" xmlns="http://www.w3.org/2000/svg"
 width="512.000000pt" height="512.000000pt" viewBox="0 0 512.000000 512.000000"
 preserveAspectRatio="xMidYMid meet">

<g transform="translate(0.000000,512.000000) scale(0.100000,-0.100000)"
fill="#000000" stroke="none">
<path d="M923 5105 c-151 -41 -260 -144 -305 -288 -17 -56 -18 -158 -18 -2257
0 -2099 1 -2201 18 -2257 46 -146 155 -248 309 -288 86 -23 3180 -23 3266 0
154 40 263 142 309 288 17 56 18 146 18 1900 l0 1842 -538 537 -537 538 -1235
-1 c-1030 0 -1244 -3 -1287 -14z m2407 -567 l0 -413 24 -50 c28 -60 66 -97
126 -124 43 -20 64 -21 458 -21 l412 0 -2 -1787 c-3 -1697 -4 -1790 -21 -1824
-24 -47 -71 -95 -121 -122 l-41 -22 -1605 0 -1605 0 -41 22 c-50 27 -97 75
-121 122 -17 34 -18 142 -21 2221 -2 1634 0 2195 9 2225 22 78 84 141 166 171
31 11 253 13 1211 14 l1172 0 0 -412z m535 -78 l360 -360 -338 0 -338 0 -24
25 -25 24 0 336 c0 184 1 335 3 335 1 0 164 -162 362 -360z"/>
<path d="M1765 4600 c-86 -14 -201 -55 -275 -98 -98 -56 -236 -199 -287 -297
-128 -246 -122 -524 18 -763 47 -79 180 -210 264 -260 443 -262 1008 -26 1135
473 15 56 21 112 21 185 0 348 -228 647 -562 740 -86 24 -230 33 -314 20z
m278 -187 c180 -53 331 -196 399 -379 19 -50 22 -79 22 -194 0 -115 -3 -144
-22 -194 -69 -186 -219 -327 -407 -382 -73 -21 -218 -24 -295 -5 -218 52 -399
239 -445 456 -70 334 149 654 489 715 64 11 192 3 259 -17z"/>
<path d="M1790 4301 c0 -48 -1 -50 -45 -76 -83 -48 -136 -156 -120 -243 16
-88 65 -138 220 -222 98 -53 115 -67 115 -95 0 -30 -34 -72 -64 -77 -37 -7
-81 16 -96 51 l-12 31 -84 0 c-94 0 -93 2 -70 -74 19 -62 56 -109 111 -142 44
-25 45 -27 45 -75 l0 -49 85 0 85 0 0 48 c0 44 2 49 36 67 49 26 108 95 122
143 42 138 -8 222 -193 324 -142 79 -148 85 -120 137 15 31 51 47 90 42 23 -3
65 -46 65 -67 0 -11 18 -14 85 -14 80 0 85 1 85 21 0 71 -62 166 -134 204 -34
18 -36 23 -36 67 l0 48 -85 0 -85 0 0 -49z"/>
<path d="M2820 3495 l0 -85 595 0 595 0 0 85 0 85 -595 0 -595 0 0 -85z"/>
<path d="M2820 3155 l0 -85 340 0 340 0 0 85 0 85 -340 0 -340 0 0 -85z"/>
<path d="M3670 3155 l0 -85 170 0 170 0 0 85 0 85 -170 0 -170 0 0 -85z"/>
<path d="M1265 2706 c-64 -30 -102 -68 -132 -132 l-23 -52 2 -913 3 -914 22
-41 c12 -22 40 -57 62 -77 78 -71 7 -67 1361 -67 1354 0 1283 -4 1361 67 22
20 50 55 62 77 l22 41 3 914 2 913 -23 52 c-30 64 -68 102 -132 132 l-50 24
-1245 0 -1245 0 -50 -24z m525 -316 l0 -170 -255 0 -255 0 0 141 0 141 29 29
29 29 226 0 226 0 0 -170z m2021 141 l29 -29 0 -141 0 -141 -940 0 -940 0 0
170 0 170 911 0 911 0 29 -29z m-2021 -1167 l0 -685 -231 3 -231 3 -24 28 -24
28 0 655 0 654 255 0 255 0 0 -686z m2050 32 l0 -655 -24 -28 -24 -28 -916 -3
-916 -2 0 685 0 685 940 0 940 0 0 -654z"/>
</g>
</svg>
