<?xml version="1.0" standalone="no"?>
<!DOCTYPE svg PUBLIC "-//W3C//DTD SVG 20010904//EN"
 "http://www.w3.org/TR/2001/REC-SVG-20010904/DTD/svg10.dtd">
<svg version="1.0" xmlns="http://www.w3.org/2000/svg"
 width="512.000000pt" height="512.000000pt" viewBox="0 0 512.000000 512.000000"
 preserveAspectRatio="xMidYMid meet">

<g transform="translate(0.000000,512.000000) scale(0.100000,-0.100000)"
fill="#000000" stroke="none">
<path d="M985 5108 c-46 -26 -44 10 -45 -1040 l0 -998 85 0 85 0 0 940 0 940
1303 0 1302 0 318 -318 317 -317 0 -2073 0 -2072 -1620 0 -1620 0 0 255 0 255
-85 0 -85 0 0 -312 c1 -329 1 -332 47 -356 31 -17 3455 -17 3486 0 12 6 27 18
34 27 10 12 12 496 13 2185 l0 2169 -332 335 c-183 184 -351 347 -372 363
l-39 29 -1386 0 c-1024 -1 -1391 -4 -1406 -12z"/>
<path d="M3500 4465 l0 -316 25 -24 24 -25 316 0 315 0 0 85 0 85 -255 0 -255
0 0 255 0 255 -85 0 -85 0 0 -315z"/>
<path d="M1690 3070 c-118 -11 -247 -43 -357 -90 -134 -57 -209 -106 -342
-218 l-51 -44 0 91 0 91 -85 0 -85 0 0 -202 0 -203 -45 -90 c-280 -556 -76
-1241 464 -1557 374 -220 844 -218 1210 3 34 22 65 39 67 39 2 0 5 -46 6 -102
l3 -103 85 0 85 0 3 181 2 182 39 43 c187 215 286 466 298 754 29 708 -585
1288 -1297 1225z m355 -205 c375 -95 668 -402 746 -780 21 -102 25 -286 8
-381 -27 -153 -97 -313 -191 -439 l-53 -70 -213 -3 -213 -2 3 -83 3 -82 105
-5 105 -5 -91 -47 c-390 -202 -866 -129 -1181 183 -187 185 -286 410 -299 679
-9 179 17 313 94 483 l35 77 188 0 189 0 0 85 0 85 -122 0 -122 0 54 56 c135
137 357 245 563 274 105 15 280 4 392 -25z"/>
<path d="M1710 2199 l0 -362 180 -181 179 -181 63 62 63 63 -158 158 -157 157
0 323 0 322 -85 0 -85 0 0 -361z"/>
</g>
</svg>
