<?xml version="1.0" standalone="no"?>
<!DOCTYPE svg PUBLIC "-//W3C//DTD SVG 20010904//EN"
 "http://www.w3.org/TR/2001/REC-SVG-20010904/DTD/svg10.dtd">
<svg version="1.0" xmlns="http://www.w3.org/2000/svg"
 width="512.000000pt" height="512.000000pt" viewBox="0 0 512.000000 512.000000"
 preserveAspectRatio="xMidYMid meet">

<g transform="translate(0.000000,512.000000) scale(0.100000,-0.100000)"
fill="#000000" stroke="none">
<path d="M4474 5014 c-86 -58 -162 -103 -170 -100 -7 3 -66 41 -131 84 -136
91 -174 112 -203 112 -28 0 -63 -19 -209 -112 -68 -44 -129 -82 -136 -85 -7
-2 -79 40 -160 94 -189 125 -188 125 -340 29 -61 -38 -131 -83 -157 -99 l-47
-30 -153 99 c-200 130 -185 130 -386 1 -85 -54 -160 -96 -167 -93 -8 3 -75 46
-150 96 -75 50 -151 94 -169 97 -40 6 -61 -4 -225 -109 -68 -44 -129 -82 -136
-85 -8 -2 -75 36 -149 87 -153 102 -178 114 -221 106 -17 -4 -98 -49 -179
-101 -82 -53 -155 -94 -161 -91 -6 2 -74 45 -149 95 -76 50 -149 94 -162 97
-32 8 -110 -21 -129 -49 -13 -19 -15 -314 -15 -2495 0 -2719 -5 -2513 60
-2547 58 -30 65 -27 267 109 l133 89 145 -96 c80 -53 160 -99 178 -102 45 -9
69 2 221 105 75 49 138 90 141 90 3 0 66 -41 141 -90 152 -103 176 -114 221
-105 18 3 98 49 178 102 l145 96 145 -96 c80 -53 160 -99 178 -102 45 -9 69 2
221 105 75 49 138 90 141 90 3 0 66 -41 141 -90 152 -103 176 -114 221 -105
18 3 98 49 178 102 l145 96 145 -96 c80 -53 160 -99 178 -102 45 -9 69 2 221
105 75 49 138 90 141 90 2 0 73 -45 155 -100 132 -87 157 -100 193 -100 49 0
81 19 102 60 13 26 15 325 15 2478 0 2137 2 2451 15 2468 24 32 18 62 -17 84
-57 35 -77 28 -244 -86z m-3144 -258 c112 -74 143 -90 182 -94 50 -5 47 -7
343 184 19 12 35 4 170 -86 202 -135 182 -135 413 14 l133 85 150 -100 c130
-86 156 -99 192 -99 23 0 55 8 72 18 17 11 87 55 156 100 l127 80 148 -99
c133 -88 154 -99 193 -99 45 0 60 8 336 186 19 12 35 4 170 -86 194 -129 198
-129 337 -29 37 27 70 49 73 49 3 0 5 -994 5 -2210 0 -1215 -2 -2210 -5 -2210
-3 0 -37 23 -75 51 -79 57 -117 71 -160 59 -17 -5 -97 -54 -178 -109 l-149
-100 -153 102 c-203 135 -188 135 -390 0 l-152 -101 -150 99 c-206 137 -173
140 -474 -53 l-72 -46 -143 96 c-199 132 -195 132 -374 19 -74 -48 -145 -93
-158 -101 -22 -15 -29 -11 -172 84 -202 134 -183 135 -415 -15 l-131 -84 -150
100 c-192 127 -197 127 -328 34 l-91 -64 0 2219 c0 1221 2 2220 5 2220 3 0 38
-23 77 -52 88 -63 130 -79 172 -67 30 9 97 52 240 156 39 28 76 48 81 45 6 -3
71 -46 145 -96z"/>
<path d="M1594 4056 c-42 -19 -64 -52 -64 -99 0 -49 21 -90 55 -105 19 -9 265
-12 995 -12 l968 0 31 30 c65 65 36 177 -50 194 -18 3 -453 6 -968 6 -766 -1
-942 -3 -967 -14z"/>
<path d="M2081 3600 c-53 -13 -84 -50 -85 -103 -1 -52 17 -90 52 -108 39 -21
1007 -20 1046 1 71 37 75 151 7 197 -24 17 -66 18 -506 20 -264 1 -495 -2
-514 -7z"/>
<path d="M1118 2773 c-102 -65 -40 -231 80 -208 128 24 121 209 -8 221 -32 3
-53 -1 -72 -13z"/>
<path d="M1578 2773 c-57 -35 -66 -122 -19 -175 l29 -33 329 -3 c297 -2 331
-1 363 15 73 37 77 151 7 193 -30 19 -52 20 -357 20 -285 -1 -328 -3 -352 -17z"/>
<path d="M3554 2771 c-39 -24 -54 -65 -54 -147 l0 -62 -49 -7 c-27 -4 -76 -19
-108 -34 -205 -98 -254 -391 -91 -553 85 -85 166 -108 388 -108 152 0 171 -7
196 -67 16 -36 11 -87 -9 -113 -34 -43 -43 -45 -274 -50 l-225 -5 -29 -33
c-41 -46 -41 -108 0 -154 28 -32 33 -33 115 -37 l86 -3 0 -70 c0 -109 36 -158
118 -158 37 0 50 6 78 34 33 33 34 37 34 113 l0 78 66 13 c80 15 127 38 176
86 143 139 142 372 -3 508 -80 75 -131 90 -340 96 -161 4 -179 7 -203 26 -54
42 -49 138 7 180 26 19 45 21 245 26 119 3 225 9 234 14 29 14 48 54 48 100 0
36 -6 52 -29 78 -28 32 -33 33 -115 37 l-86 3 0 80 c0 78 -1 81 -34 114 -40
40 -92 46 -142 15z"/>
<path d="M1130 2313 c-72 -37 -86 -126 -28 -184 24 -23 38 -29 75 -29 38 0 50
5 79 34 29 29 34 41 34 79 0 37 -5 51 -31 76 -17 17 -36 31 -42 31 -7 0 -21 3
-32 5 -11 3 -36 -2 -55 -12z"/>
<path d="M1603 2319 c-47 -14 -73 -52 -73 -110 0 -40 5 -52 31 -78 l31 -31
398 0 398 0 31 31 c26 26 31 38 31 78 0 60 -26 96 -78 111 -46 12 -724 12
-769 -1z"/>
<path d="M1122 1847 c-54 -30 -73 -109 -39 -161 63 -95 207 -51 207 64 0 34
-6 48 -34 76 -27 27 -42 34 -72 34 -22 -1 -49 -6 -62 -13z"/>
<path d="M1581 1846 c-13 -7 -30 -24 -37 -37 -18 -33 -17 -100 2 -128 33 -46
65 -51 329 -51 264 0 296 5 329 51 34 49 14 139 -35 165 -39 20 -552 20 -588
0z"/>
<path d="M1133 1385 c-83 -36 -90 -160 -11 -201 49 -25 96 -18 134 20 28 28
34 42 34 75 0 51 -24 89 -67 107 -40 17 -49 17 -90 -1z"/>
<path d="M1594 1386 c-42 -19 -64 -52 -64 -99 0 -49 21 -90 55 -105 19 -9 160
-12 526 -12 488 0 502 1 530 20 32 23 51 77 42 121 -7 38 -45 75 -84 83 -18 3
-244 6 -503 6 -374 -1 -477 -4 -502 -14z"/>
</g>
</svg>
