<?xml version="1.0" standalone="no"?>
<!DOCTYPE svg PUBLIC "-//W3C//DTD SVG 20010904//EN"
 "http://www.w3.org/TR/2001/REC-SVG-20010904/DTD/svg10.dtd">
<svg version="1.0" xmlns="http://www.w3.org/2000/svg"
 width="100.000000pt" height="100.000000pt" viewBox="0 0 100.000000 100.000000"
 preserveAspectRatio="xMidYMid meet">

<g transform="translate(0.000000,100.000000) scale(0.100000,-0.100000)"
fill="#000000" stroke="none">
<path d="M440 970 l-28 -30 -126 0 c-113 0 -128 -2 -146 -20 -19 -19 -20 -33
-20 -430 0 -397 1 -411 20 -430 19 -19 33 -20 360 -20 327 0 341 1 360 20 19
19 20 33 20 430 0 397 -1 411 -20 430 -18 18 -33 20 -146 20 l-126 0 -28 30
c-20 21 -37 30 -60 30 -23 0 -40 -9 -60 -30z m98 -42 c11 -23 20 -28 48 -28
27 0 34 -4 34 -20 0 -19 -7 -20 -120 -20 -113 0 -120 1 -120 20 0 16 7 20 35
20 25 0 38 5 42 18 18 50 59 55 81 10z m-196 -65 l3 -38 155 0 155 0 3 38 3
38 87 -3 87 -3 0 -405 0 -405 -335 0 -335 0 -3 395 c-1 217 0 401 3 407 3 9
30 13 89 13 l85 0 3 -37z"/>
<path d="M258 738 c-33 -11 -40 -43 -8 -33 19 6 20 2 20 -60 0 -58 2 -66 18
-63 14 3 17 16 20 86 3 88 2 90 -50 70z"/>
<path d="M400 660 c0 -19 7 -20 180 -20 173 0 180 1 180 20 0 19 -7 20 -180
20 -173 0 -180 -1 -180 -20z"/>
<path d="M265 532 c-20 -4 -45 -28 -45 -44 0 -14 33 -8 45 9 13 18 35 10 35
-13 0 -8 -18 -34 -41 -59 -22 -24 -38 -49 -34 -55 3 -5 31 -10 61 -10 41 0 54
4 54 15 0 11 -11 15 -37 15 l-37 0 31 33 c36 39 43 55 33 83 -9 23 -33 32 -65
26z"/>
<path d="M400 440 c0 -19 7 -20 180 -20 173 0 180 1 180 20 0 19 -7 20 -180
20 -173 0 -180 -1 -180 -20z"/>
<path d="M254 310 c-28 -11 -39 -40 -16 -40 10 0 23 5 29 11 6 6 16 8 22 5 18
-12 12 -37 -9 -43 -11 -3 -20 -9 -20 -13 0 -4 9 -10 20 -13 12 -3 20 -14 20
-26 0 -24 -20 -27 -50 -9 -10 7 -22 9 -26 5 -13 -12 28 -47 56 -47 44 0 76 50
49 77 -7 7 -8 17 -1 29 10 21 -1 64 -17 64 -5 0 -15 2 -23 4 -7 3 -22 1 -34
-4z"/>
<path d="M400 220 c0 -19 7 -20 180 -20 173 0 180 1 180 20 0 19 -7 20 -180
20 -173 0 -180 -1 -180 -20z"/>
</g>
</svg>
