<?xml version="1.0" encoding="UTF-8"?>
<svg viewBox="0 0 128 128" xmlns="http://www.w3.org/2000/svg" xmlns:xlink="http://www.w3.org/1999/xlink">
 <path d="m17.177 23.931c-1.0253 0.84146 7.2266 11.285 7.7358 11.894 7.0499 8.4358 14.029 8.7257 14.892 9.9844 0.86974 1.2516 5.0275 5.4376 12.424 6.668 0.02828 1.9233 0.13435 3.7406 0.33234 5.4659-4.5467-1.2516-9.6662-2.3264-12.53-2.3193-3.0194-0.00707-13.244 2.8496-15.076 3.7052-0.64347 0.30406-12.325 0.00707-12.325 1.2799 0 1.2869 11.632 1.7607 12.113 1.1102 4.2214 0.67175 16.179-1.5132 17.451-1.2869 1.2728 0.24042 11.066 3.0901 11.137 3.1042 0.73539 3.38 1.8031 5.2255 3.0688 7.4812-4.8649-0.14142-13.598 4.674-18.47 9.5459-4.0446 4.0446-10.783 10.585-11.802 12.028-3.8042 5.374-2.1001 22.182 0.00707 22.182 1.6546 0-2.3052-15.047 1.4991-20.421 1.096-1.5486 13.35-9.9136 14.779-11.554s9.0227-3.9881 12.205-6.364c-3.2032 2.0718-5.3952 5.3104-5.3952 9.7652 0 16.546 8.6338 23.214 15.118 23.292 0 0 0.00707 0.02121 0.02121 0.02121h0.12729c6.4771-0.08485 15.068-6.767 15.068-23.285 0.00707-4.1507-1.9092-7.2691-4.7518-9.348 3.4578 2.2132 10.239 4.3841 11.582 5.9256 1.4354 1.6334 13.633 9.9985 14.736 11.554 3.8113 5.3669-0.14142 20.435 1.5274 20.435 2.093 0 3.8042-16.815 0-22.189-1.0253-1.4354-7.757-7.9691-11.802-12.014-4.879-4.879-13.598-9.6944-18.47-9.5459 1.2657-2.2557 2.3264-4.1507 3.0688-7.5378 0.06364-0.00707 9.8571-2.8143 11.137-3.0476s13.23 1.9587 17.458 1.2799c0.47376 0.65761 12.113 0.17678 12.106-1.1031 0.00707-1.2799-11.71-1.0041-12.353-1.3082-1.8243-0.86267-12-3.7123-15.026-3.7123-2.8638 0.00707-8.0257 1.0819-12.572 2.3193 0.19799-1.7112 0.34648-3.5285 0.37477-5.4518 7.3963-1.2445 11.561-5.4235 12.417-6.6751 0.86974-1.2516 7.8489-1.5415 14.899-9.9914 0.50204-0.60104 8.761-11.052 7.7287-11.886-1.2092-0.98288-8.7752 8.761-9.0793 9.6167-2.0506 1.0182-11.795 7.5095-12.968 7.9762-1.1809 0.45962-7.1206 2.5809-13.435 6.364-0.96874-3.6982-3.4083-6.2084-6.3922-7.5378 4.1224-0.00707 7.1206-0.81317 7.1206-5.3528 0-4.9639-0.95459-9.5389-2.5597-13.209 4.3911-2.284 7.5731-4.7305 8.5277-5.077 0.95459-0.36062 1.3223-1.6758-0.4879-4.9992-2.984-5.4589-6.2155-10.189-6.9155-9.9278-0.70004 0.27577 2.5668 10.911 5.3669 13.202-3.3163 0.5869-5.4942 1.6617-8.259 3.578-2.1779-3.2951-4.978-5.275-8.0681-5.3245-0.00707-0.00707-0.01414-0.02828-0.02121-0.02121-0.02828 0-0.06364-0.00707-0.09192-0.00707-3.0971 0.04243-5.9538 2.0506-8.1247 5.3528-2.7719-1.9092-4.9356-3.0123-8.2449-3.6062 2.8001-2.2769 6.0882-12.905 5.3882-13.166s-3.9527 4.4336-6.9367 9.8924c-1.8173 3.3305-1.4213 4.674-0.46669 5.0205 0.96167 0.35355 4.1436 2.8001 8.5348 5.0841-1.6122 3.6628-2.5668 8.2519-2.5668 13.216 0 4.5255 2.9981 5.3457 7.1135 5.3457-2.9769 1.3364-5.4164 3.8467-6.3852 7.5307-6.3145-3.783-12.282-5.8761-13.456-6.3428-1.1809-0.45962-10.918-7.0004-12.968-8.0186-0.29698-0.84853-7.8489-10.578-9.0651-9.5884z" fill="#222"/>
</svg>
